<svg width="155" height="155" viewBox="0 0 155 155" fill="none" xmlns="http://www.w3.org/2000/svg">
<path fill-rule="evenodd" clip-rule="evenodd" d="M35.1893 0H119.811V10.5571H144.443L144.443 35.1898H155V119.811H144.443V144.444H119.811V155H35.1893V144.444H10.5569V119.811H0V35.1898H10.5569V10.5571H35.1893V0ZM6.24161 113.57V113.57H16.7984V113.57H6.24161ZM30.8742 138.202L30.8741 138.202V138.201H41.4308L30.8742 138.202ZM113.569 138.201V148.759H41.431L113.569 148.759V138.201H124.126L113.569 138.201ZM148.758 41.4315V113.57H138.202L148.758 113.57V41.4314L148.758 41.4315ZM113.569 6.24161V16.7986H113.569V6.24161H113.569ZM18.5579 43.1907V111.81H18.5578V43.1906H30.8741V30.8744H43.1904V18.5578H111.81V18.5579H43.1905V30.8745H30.8742V43.1907H18.5579ZM30.8741 124.126V111.81H30.8742V124.126H30.8741ZM43.1904 136.442V124.126H43.1905V136.442L43.1904 136.442ZM124.126 30.8744V30.8745H111.81V30.8744H124.126ZM24.7995 49.4324V105.569H37.1158V117.884H49.4321V130.201H105.568V117.884H117.884V105.569H130.201V49.4324H117.884V37.1161H105.568V24.7995H49.4321V37.1161H37.1158V49.4324H24.7995ZM57 37.0002H98V43.0002H104H112V51.0002V57.0002H118V98.0002H112V104V112H104H98V118H57V112H51H43V104V98.0002H37V57.0002H43V51.0002V43.0002H51H57V37.0002ZM104 58.0002H111V97.0002H104V104H97V111H58V104H51V97.0002H44V58.0002H51V51.0002H58V44.0002H97V51.0002H104V58.0002Z" fill="black"/>
</svg>
