<svg width="17" height="21" viewBox="0 0 17 21" fill="none" xmlns="http://www.w3.org/2000/svg">
<rect x="9.6087" y="0.26088" width="3.69565" height="0.73913" fill="black"/>
<rect x="9.6087" y="1" width="2.21739" height="0.73913" fill="black"/>
<rect x="9.6087" y="1" width="2.21739" height="2.95652" fill="black"/>
<rect x="2.21741" y="5.43478" width="5.91304" height="1.47826" fill="black"/>
<rect width="5.91304" height="0.73913" transform="matrix(1 0 0 -1 2.21741 7.65218)" fill="black"/>
<rect width="5.17391" height="0.73913" transform="matrix(1 0 0 -1 9.6087 7.65218)" fill="black"/>
<rect x="9.6087" y="5.43478" width="5.17391" height="1.47826" fill="black"/>
<rect width="7.3913" height="0.73913" transform="matrix(1 0 0 -1 9.6087 9.13043)" fill="black"/>
<rect width="6.65217" height="0.73913" transform="matrix(1 0 0 -1 9.6087 8.39131)" fill="black"/>
<rect x="1.47827" y="7.65218" width="11.087" height="9.6087" fill="black"/>
<rect x="1.47827" y="13.5652" width="15.5217" height="3.69565" fill="black"/>
<rect x="2.21741" y="14.3044" width="13.3043" height="5.17391" fill="black"/>
<rect x="4.43481" y="19.4783" width="3.69565" height="1.47826" fill="black"/>
<rect x="9.6087" y="19.4783" width="3.69565" height="1.47826" fill="black"/>
<rect x="8.13043" y="1.73914" width="1.47826" height="3.69565" fill="black"/>
<rect x="0.739136" y="7.65218" width="1.47826" height="9.6087" fill="black"/>
<rect y="8.39131" width="1.47826" height="8.86957" fill="black"/>
</svg>
