<svg width="14" height="13" viewBox="0 0 14 13" fill="none" xmlns="http://www.w3.org/2000/svg">
<path fill-rule="evenodd" clip-rule="evenodd" d="M10.6313 1.47791C11.0461 1.47791 11.4608 1.47791 11.8756 1.47791C11.8756 1.87443 11.8756 2.27096 11.8756 2.66748C11.4608 2.66748 11.0461 2.66748 10.6313 2.66748C10.6313 2.27096 10.6313 1.87443 10.6313 1.47791Z" fill="#0A0A0A"/>
<path fill-rule="evenodd" clip-rule="evenodd" d="M13.12 0C13.12 0.50467 13.12 1.00934 13.12 1.51401C12.7052 1.51401 12.2905 1.51401 11.8757 1.51401C11.8757 1.00934 11.8757 0.50467 11.8757 0C12.2905 0 12.7052 0 13.12 0Z" fill="#040404"/>
<path fill-rule="evenodd" clip-rule="evenodd" d="M9.11066 2.6676C9.61762 2.6676 10.1244 2.6676 10.6314 2.6676C10.6314 3.06413 10.6314 3.46066 10.6314 3.85718C10.1244 3.85718 9.61762 3.85718 9.11066 3.85718C9.11066 3.46066 9.11066 3.06413 9.11066 2.6676Z" fill="black"/>
<path fill-rule="evenodd" clip-rule="evenodd" d="M5.23981 5.3111C6.16151 5.3111 7.08308 5.3111 8.00479 5.3111C8.00479 6.10415 8.00479 6.8972 8.00479 7.69026C7.08308 7.69026 6.16151 7.69026 5.23981 7.69026C5.23981 6.8972 5.23981 6.10415 5.23981 5.3111Z" fill="black"/>
<path fill-rule="evenodd" clip-rule="evenodd" d="M8.00476 3.85712C8.37347 3.85712 8.74204 3.85712 9.11075 3.85712C9.11075 4.34176 9.11075 4.8264 9.11075 5.31105C8.74204 5.31105 8.37347 5.31105 8.00476 5.31105C8.00476 4.8264 8.00476 4.34176 8.00476 3.85712Z" fill="black"/>
<path fill-rule="evenodd" clip-rule="evenodd" d="M2.61121 1.47791C2.19646 1.47791 1.78171 1.47791 1.36696 1.47791C1.36696 1.87443 1.36696 2.27096 1.36696 2.66748C1.78171 2.66748 2.19646 2.66748 2.61121 2.66748C2.61121 2.27096 2.61121 1.87443 2.61121 1.47791Z" fill="#0A0A0A"/>
<path fill-rule="evenodd" clip-rule="evenodd" d="M0.12258 0C0.12258 0.50467 0.12258 1.00934 0.12258 1.51401C0.537327 1.51401 0.952074 1.51401 1.36682 1.51401C1.36682 1.00934 1.36682 0.50467 1.36682 0C0.952074 0 0.537327 0 0.12258 0Z" fill="#040404"/>
<path fill-rule="evenodd" clip-rule="evenodd" d="M4.1319 2.6676C3.62494 2.6676 3.11812 2.6676 2.61116 2.6676C2.61116 3.06413 2.61116 3.46066 2.61116 3.85718C3.11812 3.85718 3.62494 3.85718 4.1319 3.85718C4.1319 3.46066 4.1319 3.06413 4.1319 2.6676Z" fill="black"/>
<path fill-rule="evenodd" clip-rule="evenodd" d="M8.00275 5.3111C7.08104 5.3111 6.15947 5.3111 5.23777 5.3111C5.23777 6.10415 5.23777 6.8972 5.23777 7.69026C6.15947 7.69026 7.08104 7.69026 8.00275 7.69026C8.00275 6.8972 8.00275 6.10415 8.00275 5.3111Z" fill="black"/>
<path fill-rule="evenodd" clip-rule="evenodd" d="M5.23779 3.85712C4.86908 3.85712 4.50051 3.85712 4.1318 3.85712C4.1318 4.34176 4.1318 4.8264 4.1318 5.31105C4.50051 5.31105 4.86908 5.31105 5.23779 5.31105C5.23779 4.8264 5.23779 4.34176 5.23779 3.85712Z" fill="black"/>
<path fill-rule="evenodd" clip-rule="evenodd" d="M10.6288 11.5221C11.0436 11.5221 11.4583 11.5221 11.8731 11.5221C11.8731 11.1256 11.8731 10.729 11.8731 10.3325C11.4583 10.3325 11.0436 10.3325 10.6288 10.3325C10.6288 10.729 10.6288 11.1256 10.6288 11.5221Z" fill="#0A0A0A"/>
<path fill-rule="evenodd" clip-rule="evenodd" d="M13.1175 13C13.1175 12.4953 13.1175 11.9907 13.1175 11.486C12.7027 11.486 12.288 11.486 11.8732 11.486C11.8732 11.9907 11.8732 12.4953 11.8732 13C12.288 13 12.7027 13 13.1175 13Z" fill="#040404"/>
<path fill-rule="evenodd" clip-rule="evenodd" d="M9.10822 10.3324C9.61517 10.3324 10.122 10.3324 10.629 10.3324C10.629 9.93587 10.629 9.53934 10.629 9.14282C10.122 9.14282 9.61517 9.14282 9.10822 9.14282C9.10822 9.53934 9.10822 9.93587 9.10822 10.3324Z" fill="black"/>
<path fill-rule="evenodd" clip-rule="evenodd" d="M5.2373 7.6889C6.15901 7.6889 7.08058 7.6889 8.00229 7.6889C8.00229 6.89585 8.00229 6.1028 8.00229 5.30974C7.08058 5.30974 6.15901 5.30974 5.2373 5.30974C5.2373 6.1028 5.2373 6.89585 5.2373 7.6889Z" fill="black"/>
<path fill-rule="evenodd" clip-rule="evenodd" d="M8.0022 9.14288C8.37091 9.14288 8.73948 9.14288 9.10819 9.14288C9.10819 8.65824 9.10819 8.1736 9.10819 7.68895C8.73948 7.68895 8.37091 7.68895 8.0022 7.68895C8.0022 8.1736 8.0022 8.65824 8.0022 9.14288Z" fill="black"/>
<path fill-rule="evenodd" clip-rule="evenodd" d="M2.60864 11.5221C2.1939 11.5221 1.77915 11.5221 1.3644 11.5221C1.3644 11.1256 1.3644 10.729 1.3644 10.3325C1.77915 10.3325 2.1939 10.3325 2.60864 10.3325C2.60864 10.729 2.60864 11.1256 2.60864 11.5221Z" fill="#0A0A0A"/>
<path fill-rule="evenodd" clip-rule="evenodd" d="M0.120017 13C0.120017 12.4953 0.120017 11.9907 0.120017 11.486C0.534764 11.486 0.949511 11.486 1.36426 11.486C1.36426 11.9907 1.36426 12.4953 1.36426 13C0.949511 13 0.534764 13 0.120017 13Z" fill="#040404"/>
<path fill-rule="evenodd" clip-rule="evenodd" d="M4.12927 10.3324C3.62231 10.3324 3.11549 10.3324 2.60853 10.3324C2.60853 9.93587 2.60853 9.53934 2.60853 9.14282C3.11549 9.14282 3.62231 9.14282 4.12927 9.14282C4.12927 9.53934 4.12927 9.93587 4.12927 10.3324Z" fill="black"/>
<path fill-rule="evenodd" clip-rule="evenodd" d="M8.00024 7.6889C7.07854 7.6889 6.15697 7.6889 5.23526 7.6889C5.23526 6.89585 5.23526 6.1028 5.23526 5.30974C6.15697 5.30974 7.07854 5.30974 8.00024 5.30974C8.00024 6.1028 8.00024 6.89585 8.00024 7.6889Z" fill="black"/>
<path fill-rule="evenodd" clip-rule="evenodd" d="M5.23529 9.14288C4.86658 9.14288 4.49801 9.14288 4.1293 9.14288C4.1293 8.65824 4.1293 8.1736 4.1293 7.68895C4.49801 7.68895 4.86658 7.68895 5.23529 7.68895C5.23529 8.1736 5.23529 8.65824 5.23529 9.14288Z" fill="black"/>
</svg>
