<svg width="13" height="13" viewBox="0 0 13 13" fill="none" xmlns="http://www.w3.org/2000/svg">
<path d="M0 0H1V1H0V0Z" fill="black"/>
<path d="M12 0H13V1H12V0Z" fill="black"/>
<path d="M1 1H2V2H1V1Z" fill="black"/>
<path d="M2 2H3V3H2V2Z" fill="black"/>
<path d="M3 3H4V4H3V3Z" fill="black"/>
<path d="M4 4H5V5H4V4Z" fill="black"/>
<path d="M5 5H6V6H5V5Z" fill="black"/>
<path d="M11 1H12V2H11V1Z" fill="black"/>
<path d="M10 2H11V3H10V2Z" fill="black"/>
<path d="M9 3H10V4H9V3Z" fill="black"/>
<path d="M8 4H9V5H8V4Z" fill="black"/>
<path d="M7 5H8V6H7V5Z" fill="black"/>
<path d="M0 13H1V12H0V13Z" fill="black"/>
<path d="M12 13H13V12H12V13Z" fill="black"/>
<path d="M1 12H2V11H1V12Z" fill="black"/>
<path d="M2 11H3V10H2V11Z" fill="black"/>
<path d="M3 10H4V9H3V10Z" fill="black"/>
<path d="M4 9H5V8H4V9Z" fill="black"/>
<path d="M5 8H6V7H5V8Z" fill="black"/>
<path d="M11 12H12V11H11V12Z" fill="black"/>
<path d="M10 11H11V10H10V11Z" fill="black"/>
<path d="M9 10H10V9H9V10Z" fill="black"/>
<path d="M8 9H9V8H8V9Z" fill="black"/>
<path d="M7 8H8V7H7V8Z" fill="black"/>
<path d="M6 7H7V6H6V7Z" fill="black"/>
</svg>
