<svg width="12" height="12" viewBox="0 0 12 12" fill="black" xmlns="http://www.w3.org/2000/svg">
<rect x="0" y="0" width="1" height="1"/>
<rect x="1" y="1" width="1" height="1"/>
<rect x="2" y="2" width="1" height="1"/>
<rect x="3" y="3" width="1" height="1"/>
<rect x="4" y="4" width="1" height="1"/>
<rect x="5" y="5" width="1" height="1"/>
<rect x="6" y="6" width="1" height="1"/>
<rect x="7" y="7" width="1" height="1"/>
<rect x="8" y="8" width="1" height="1"/>
<rect x="9" y="9" width="1" height="1"/>
<rect x="10" y="10" width="1" height="1"/>
<rect x="11" y="11" width="1" height="1"/>
<rect x="11" y="0" width="1" height="1"/>
<rect x="10" y="1" width="1" height="1"/>
<rect x="9" y="2" width="1" height="1"/>
<rect x="8" y="3" width="1" height="1"/>
<rect x="7" y="4" width="1" height="1"/>
<rect x="6" y="5" width="1" height="1"/>
<rect x="5" y="6" width="1" height="1"/>
<rect x="4" y="7" width="1" height="1"/>
<rect x="3" y="8" width="1" height="1"/>
<rect x="2" y="9" width="1" height="1"/>
<rect x="1" y="10" width="1" height="1"/>
<rect x="0" y="11" width="1" height="1"/>
</svg>
