<svg width="12" height="12" viewBox="0 0 12 12" fill="none" xmlns="http://www.w3.org/2000/svg">
<rect x="3.90698" width="4.18605" height="1.06667" fill="black"/>
<rect y="8" width="4" height="1.11628" transform="rotate(-90 0 8)" fill="black"/>
<rect x="10.8837" y="8" width="4" height="1.11628" transform="rotate(-90 10.8837 8)" fill="black"/>
<rect x="1.95349" y="1.06667" width="1.95349" height="1.06667" fill="black"/>
<rect x="8.09302" y="1.06667" width="1.95349" height="1.06667" fill="black"/>
<rect x="10.0465" y="4" width="1.86667" height="0.837209" transform="rotate(-90 10.0465 4)" fill="black"/>
<rect x="1.11627" y="4" width="1.86667" height="0.837209" transform="rotate(-90 1.11627 4)" fill="black"/>
<rect width="4.18605" height="1.06667" transform="matrix(1 0 0 -1 3.90698 12)" fill="black"/>
<rect width="1.95349" height="1.06667" transform="matrix(1 0 0 -1 1.95349 10.9333)" fill="black"/>
<rect width="1.95349" height="1.06667" transform="matrix(1 0 0 -1 8.09302 10.9333)" fill="black"/>
<rect width="1.86667" height="0.837209" transform="matrix(0 1 1 0 10.0465 8)" fill="black"/>
<rect width="1.86667" height="0.837209" transform="matrix(0 1 1 0 1.11627 8)" fill="black"/>
</svg>
