<svg width="24" height="23" viewBox="0 0 24 23" fill="none" xmlns="http://www.w3.org/2000/svg">
<rect x="-0.5" y="-0.5" width="21" height="22.38" transform="matrix(0 -1 -1 0 22.69 21.69)" fill="white" stroke="black"/>
<rect x="0.685059" y="21.69" width="20" height="2.00043" transform="rotate(-90 0.685059 21.69)" fill="black"/>
<rect x="11.3124" y="21.315" width="5.5" height="1.37529" transform="rotate(-90 11.3124 21.315)" fill="black"/>
<rect x="5.81116" y="15.815" width="6.875" height="11.0024" transform="rotate(-90 5.81116 15.815)" fill="black"/>
<rect x="5.81116" y="15.815" width="5.50118" height="1.375" fill="black"/>
<rect x="18.1888" y="13.065" width="1.37529" height="1.375" fill="black"/>
<rect x="19.5641" y="11.69" width="1.37529" height="1.375" fill="black"/>
<rect x="11.3124" y="3.44" width="1.37529" height="1.375" fill="black"/>
<rect x="12.6876" y="4.815" width="1.37529" height="4.125" fill="black"/>
<rect x="14.0629" y="6.19" width="1.37529" height="2.75" fill="black"/>
<rect x="15.4382" y="7.565" width="1.37529" height="1.375" fill="black"/>
<rect x="16.8135" y="8.94" width="1.37529" height="1.375" fill="black"/>
<rect x="18.1888" y="10.315" width="1.37529" height="2.75" fill="black"/>
<rect x="16.8135" y="10.315" width="1.37529" height="5.5" fill="black"/>
<rect x="15.4382" y="15.815" width="1.37529" height="1.375" fill="black"/>
<rect x="14.0629" y="15.815" width="1.37529" height="2.75" fill="black"/>
<rect x="12.6876" y="15.815" width="1.37529" height="4.125" fill="black"/>
<rect x="11.3124" y="19.94" width="1.37529" height="1.375" fill="black"/>
<rect x="5.81116" y="7.565" width="5.50118" height="1.375" fill="black"/>
<rect x="11.3124" y="8.94" width="5.5" height="1.37529" transform="rotate(-90 11.3124 8.94)" fill="black"/>
</svg>
