<svg width="24" height="23" viewBox="0 0 24 23" fill="none" xmlns="http://www.w3.org/2000/svg">
<rect x="-0.5" y="-0.5" width="21" height="22.375" transform="matrix(0 -1 -1 0 22.6875 21.6875)" fill="white" stroke="black"/>
<rect x="0.6875" y="21.6875" width="20" height="2" transform="rotate(-90 0.6875 21.6875)" fill="black"/>
<rect x="11.3125" y="21.3125" width="5.5" height="1.375" transform="rotate(-90 11.3125 21.3125)" fill="black"/>
<rect x="5.8125" y="15.8125" width="6.875" height="1.375" transform="rotate(-90 5.8125 15.8125)" fill="black"/>
<rect x="5.8125" y="15.8125" width="5.5" height="1.375" fill="black"/>
<rect x="18.1875" y="13.0625" width="1.375" height="1.375" fill="black"/>
<rect x="19.5625" y="11.6875" width="1.375" height="1.375" fill="black"/>
<rect x="11.3125" y="3.4375" width="1.375" height="1.375" fill="black"/>
<rect x="12.6875" y="4.8125" width="1.375" height="1.375" fill="black"/>
<rect x="14.0625" y="6.1875" width="1.375" height="1.375" fill="black"/>
<rect x="15.4375" y="7.5625" width="1.375" height="1.375" fill="black"/>
<rect x="16.8125" y="8.9375" width="1.375" height="1.375" fill="black"/>
<rect x="18.1875" y="10.3125" width="1.375" height="1.375" fill="black"/>
<rect x="16.8125" y="14.4375" width="1.375" height="1.375" fill="black"/>
<rect x="15.4375" y="15.8125" width="1.375" height="1.375" fill="black"/>
<rect x="14.0625" y="17.1875" width="1.375" height="1.375" fill="black"/>
<rect x="12.6875" y="18.5625" width="1.375" height="1.375" fill="black"/>
<rect x="11.3125" y="19.9375" width="1.375" height="1.375" fill="black"/>
<rect x="5.8125" y="7.5625" width="5.5" height="1.375" fill="black"/>
<rect x="11.3125" y="8.9375" width="5.5" height="1.375" transform="rotate(-90 11.3125 8.9375)" fill="black"/>
</svg>
