<svg width="24" height="23" viewBox="0 0 24 23" fill="none" xmlns="http://www.w3.org/2000/svg">
<rect x="0.8125" y="22.1875" width="21" height="22.375" transform="rotate(-90 0.8125 22.1875)" fill="white" stroke="black"/>
<rect width="20" height="2" transform="matrix(0 -1 -1 0 23.3125 21.6875)" fill="black"/>
<rect width="5.5" height="1.375" transform="matrix(0 -1 -1 0 12.6875 21.3125)" fill="black"/>
<rect width="6.875" height="1.375" transform="matrix(0 -1 -1 0 18.1875 15.8125)" fill="black"/>
<rect width="5.5" height="1.375" transform="matrix(-1 0 0 1 18.1875 15.8125)" fill="black"/>
<rect width="1.375" height="1.375" transform="matrix(-1 0 0 1 5.8125 13.0625)" fill="black"/>
<rect width="1.375" height="1.375" transform="matrix(-1 0 0 1 4.4375 11.6875)" fill="black"/>
<rect width="1.375" height="1.375" transform="matrix(-1 0 0 1 12.6875 3.4375)" fill="black"/>
<rect width="1.375" height="1.375" transform="matrix(-1 0 0 1 11.3125 4.8125)" fill="black"/>
<rect width="1.375" height="1.375" transform="matrix(-1 0 0 1 9.9375 6.1875)" fill="black"/>
<rect width="1.375" height="1.375" transform="matrix(-1 0 0 1 8.5625 7.5625)" fill="black"/>
<rect width="1.375" height="1.375" transform="matrix(-1 0 0 1 7.1875 8.9375)" fill="black"/>
<rect width="1.375" height="1.375" transform="matrix(-1 0 0 1 5.8125 10.3125)" fill="black"/>
<rect width="1.375" height="1.375" transform="matrix(-1 0 0 1 7.1875 14.4375)" fill="black"/>
<rect width="1.375" height="1.375" transform="matrix(-1 0 0 1 8.5625 15.8125)" fill="black"/>
<rect width="1.375" height="1.375" transform="matrix(-1 0 0 1 9.9375 17.1875)" fill="black"/>
<rect width="1.375" height="1.375" transform="matrix(-1 0 0 1 11.3125 18.5625)" fill="black"/>
<rect width="1.375" height="1.375" transform="matrix(-1 0 0 1 12.6875 19.9375)" fill="black"/>
<rect width="5.5" height="1.375" transform="matrix(-1 0 0 1 18.1875 7.5625)" fill="black"/>
<rect width="5.5" height="1.375" transform="matrix(0 -1 -1 0 12.6875 8.9375)" fill="black"/>
</svg>
