<svg width="22" height="24" viewBox="0 0 22 24" fill="none" xmlns="http://www.w3.org/2000/svg">
<rect x="0.5" y="0.5" width="21" height="22.38" fill="white" stroke="black"/>
<rect width="20" height="2.00043" transform="matrix(1 0 0 -1 1 23.0049)" fill="black"/>
<rect width="5.5" height="1.37529" transform="matrix(1 0 0 -1 1.375 12.3776)" fill="black"/>
<rect width="6.875" height="11.0024" transform="matrix(1 0 0 -1 6.875 17.8788)" fill="black"/>
<rect width="5.50118" height="1.375" transform="matrix(0 -1 -1 0 6.875 17.8788)" fill="black"/>
<rect width="1.37529" height="1.375" transform="matrix(0 -1 -1 0 9.625 5.50118)" fill="black"/>
<rect width="1.37529" height="1.375" transform="matrix(0 -1 -1 0 11 4.12588)" fill="black"/>
<rect width="1.37529" height="1.375" transform="matrix(0 -1 -1 0 19.25 12.3776)" fill="black"/>
<rect width="1.37529" height="4.125" transform="matrix(0 -1 -1 0 17.875 11.0024)" fill="black"/>
<rect width="1.37529" height="2.75" transform="matrix(0 -1 -1 0 16.5 9.62706)" fill="black"/>
<rect width="1.37529" height="1.375" transform="matrix(0 -1 -1 0 15.125 8.25176)" fill="black"/>
<rect width="1.37529" height="1.375" transform="matrix(0 -1 -1 0 13.75 6.87647)" fill="black"/>
<rect width="1.37529" height="2.75" transform="matrix(0 -1 -1 0 12.375 5.50118)" fill="black"/>
<rect width="1.37529" height="5.5" transform="matrix(0 -1 -1 0 12.375 6.87647)" fill="black"/>
<rect width="1.37529" height="1.375" transform="matrix(0 -1 -1 0 6.875 8.25176)" fill="black"/>
<rect width="1.37529" height="2.75" transform="matrix(0 -1 -1 0 6.875 9.62706)" fill="black"/>
<rect width="1.37529" height="4.125" transform="matrix(0 -1 -1 0 6.875 11.0024)" fill="black"/>
<rect width="1.37529" height="1.375" transform="matrix(0 -1 -1 0 2.75 12.3776)" fill="black"/>
<rect width="5.50118" height="1.375" transform="matrix(0 -1 -1 0 15.125 17.8788)" fill="black"/>
<rect width="5.5" height="1.37529" transform="matrix(1 0 0 -1 13.75 12.3776)" fill="black"/>
</svg>
